<svg width="183" height="26" viewBox="0 0 183 26" fill="none" xmlns="http://www.w3.org/2000/svg">
<path d="M1.89406 23H5.37275V14.8424H13.3522V11.9263H5.37275V6.71298H14.1961V3.79688H1.89406V23ZM20.4387 23.2907C22.6984 23.2907 24.0486 22.2311 24.6675 21.0216H24.78V23H28.043V13.3609C28.043 9.55406 24.9394 8.41013 22.1921 8.41013C19.1635 8.41013 16.8381 9.76035 16.088 12.3858L19.2572 12.8358C19.5948 11.8513 20.5512 11.0074 22.2108 11.0074C23.7861 11.0074 24.6487 11.8138 24.6487 13.2297V13.2859C24.6487 14.2611 23.6267 14.308 21.0856 14.5799C18.2914 14.8799 15.6191 15.7144 15.6191 18.9587C15.6191 21.7904 17.6913 23.2907 20.4387 23.2907ZM21.3201 20.7965C19.9042 20.7965 18.8915 20.1495 18.8915 18.9025C18.8915 17.5991 20.0261 17.0553 21.5451 16.8396C22.4359 16.7177 24.2174 16.4927 24.6581 16.1364V17.8335C24.6581 19.4369 23.3641 20.7965 21.3201 20.7965ZM42.0471 12.4045C41.5782 9.96663 39.6279 8.41013 36.2524 8.41013C32.7831 8.41013 30.4202 10.1167 30.4295 12.7796C30.4202 14.8799 31.7141 16.2677 34.4802 16.8396L36.9369 17.3553C38.2589 17.646 38.8778 18.1805 38.8778 18.9962C38.8778 19.9808 37.8089 20.7215 36.1961 20.7215C34.6396 20.7215 33.6269 20.0464 33.3363 18.7524L30.0264 19.0712C30.4483 21.7154 32.6705 23.2813 36.2055 23.2813C39.8061 23.2813 42.3471 21.4154 42.3565 18.6868C42.3471 16.6333 41.025 15.3769 38.3058 14.7862L35.8492 14.2611C34.3864 13.9329 33.8051 13.4266 33.8145 12.5921C33.8051 11.6169 34.8834 10.9418 36.2992 10.9418C37.8651 10.9418 38.6903 11.7951 38.9528 12.7421L42.0471 12.4045ZM47.7575 14.5611C47.7575 12.4795 49.0515 11.2793 50.8706 11.2793C52.6521 11.2793 53.7023 12.4139 53.7023 14.3548V23H57.0966V13.8298C57.0966 10.3511 55.1275 8.41013 52.1364 8.41013C49.9235 8.41013 48.517 9.41342 47.8513 11.0449H47.6825V3.79688H44.3632V23H47.7575V14.5611ZM59.7644 23H63.1587V8.59766H59.7644V23ZM61.4709 6.55358C62.5492 6.55358 63.4306 5.72844 63.4306 4.71578C63.4306 3.69374 62.5492 2.8686 61.4709 2.8686C60.3832 2.8686 59.5018 3.69374 59.5018 4.71578C59.5018 5.72844 60.3832 6.55358 61.4709 6.55358ZM72.1392 23.2813C76.3587 23.2813 79.0404 20.3089 79.0404 15.8551C79.0404 11.3919 76.3587 8.41013 72.1392 8.41013C67.9198 8.41013 65.2381 11.3919 65.2381 15.8551C65.2381 20.3089 67.9198 23.2813 72.1392 23.2813ZM72.158 20.5621C69.8232 20.5621 68.6793 18.4805 68.6793 15.8457C68.6793 13.2109 69.8232 11.1012 72.158 11.1012C74.4552 11.1012 75.5992 13.2109 75.5992 15.8457C75.5992 18.4805 74.4552 20.5621 72.158 20.5621ZM84.5235 14.5611C84.5235 12.4795 85.7799 11.2793 87.5708 11.2793C89.3242 11.2793 90.3744 12.4327 90.3744 14.3548V23H93.7687V13.8298C93.7781 10.3792 91.809 8.41013 88.8367 8.41013C86.6801 8.41013 85.1986 9.44155 84.5422 11.0449H84.3734V8.59766H81.1292V23H84.5235V14.5611ZM102.335 23H105.813V14.8424H114.712V23H118.2V3.79688H114.712V11.9263H105.813V3.79688H102.335V23ZM125.185 23.2907C127.445 23.2907 128.795 22.2311 129.414 21.0216H129.527V23H132.79V13.3609C132.79 9.55406 129.686 8.41013 126.939 8.41013C123.91 8.41013 121.585 9.76035 120.835 12.3858L124.004 12.8358C124.341 11.8513 125.298 11.0074 126.957 11.0074C128.533 11.0074 129.395 11.8138 129.395 13.2297V13.2859C129.395 14.2611 128.373 14.308 125.832 14.5799C123.038 14.8799 120.366 15.7144 120.366 18.9587C120.366 21.7904 122.438 23.2907 125.185 23.2907ZM126.067 20.7965C124.651 20.7965 123.638 20.1495 123.638 18.9025C123.638 17.5991 124.773 17.0553 126.292 16.8396C127.183 16.7177 128.964 16.4927 129.405 16.1364V17.8335C129.405 19.4369 128.111 20.7965 126.067 20.7965ZM144.59 16.9428C144.59 19.1369 143.024 20.2245 141.524 20.2245C139.893 20.2245 138.805 19.0712 138.805 17.2428V8.59766H135.411V17.7679C135.411 21.2278 137.38 23.1875 140.211 23.1875C142.368 23.1875 143.887 22.053 144.543 20.4402H144.693V23H147.985V8.59766H144.59V16.9428ZM162.066 12.4045C161.597 9.96663 159.647 8.41013 156.271 8.41013C152.802 8.41013 150.439 10.1167 150.448 12.7796C150.439 14.8799 151.733 16.2677 154.499 16.8396L156.956 17.3553C158.278 17.646 158.897 18.1805 158.897 18.9962C158.897 19.9808 157.828 20.7215 156.215 20.7215C154.658 20.7215 153.646 20.0464 153.355 18.7524L150.045 19.0712C150.467 21.7154 152.689 23.2813 156.224 23.2813C159.825 23.2813 162.366 21.4154 162.375 18.6868C162.366 16.6333 161.044 15.3769 158.325 14.7862L155.868 14.2611C154.405 13.9329 153.824 13.4266 153.833 12.5921C153.824 11.6169 154.902 10.9418 156.318 10.9418C157.884 10.9418 158.709 11.7951 158.972 12.7421L162.066 12.4045Z" fill="black"/>
<rect x="168.385" y="19" width="14" height="4" fill="#2945FF"/>
</svg>
